<?xml version="1.0" encoding="utf-8"?>
<!-- Generator: Adobe Illustrator 17.0.0, SVG Export Plug-In . SVG Version: 6.00 Build 0)  -->
<!DOCTYPE svg PUBLIC "-//W3C//DTD SVG 1.1//EN" "http://www.w3.org/Graphics/SVG/1.1/DTD/svg11.dtd">
<svg version="1.1" id="图层_2" xmlns="http://www.w3.org/2000/svg" xmlns:xlink="http://www.w3.org/1999/xlink" x="0px" y="0px"
	 width="252px" height="45px" viewBox="0 0 252 45" enable-background="new 0 0 252 45" xml:space="preserve">
<g>
	<path fill="#FFFFFF" stroke="#FFFFFF" stroke-miterlimit="10" d="M48.438,15.829L36.552,3.943c-3.779-3.779-9.906-3.779-13.685,0
		L10.981,15.829c-3.779,3.779-3.779,9.906,0,13.685L22.867,41.4c3.779,3.779,9.906,3.779,13.685,0l11.886-11.886
		C52.217,25.735,52.217,19.608,48.438,15.829z M34.594,36.029c-2.698,2.698-7.072,2.698-9.77,0l-8.472-8.472
		c-2.698-2.698-2.698-7.072,0-9.77l8.472-8.472c2.698-2.698,7.072-2.698,9.77,0l8.472,8.472c2.698,2.698,2.698,7.072,0,9.77
		L34.594,36.029z"/>
	<path fill="#0E90D2" d="M34.813,36.131c-2.779,2.801-7.302,2.818-10.102,0.04l-8.402-8.336c-2.801-2.779-2.818-7.302-0.04-10.102
		l8.336-8.402c2.779-2.801,7.302-2.818,10.102-0.04l8.402,8.336c2.801,2.779,2.818,7.302,0.04,10.102L34.813,36.131z"/>
	<path fill="#FFDA00" d="M32.938,31.206c-1.758,1.771-4.618,1.783-6.39,0.025l-5.314-5.272c-1.771-1.758-1.783-4.618-0.025-6.39
		l5.272-5.314c1.758-1.771,4.618-1.783,6.39-0.025l5.314,5.272c1.771,1.758,1.783,4.618,0.025,6.39L32.938,31.206z"/>
	<path fill="#0E90D2" d="M34.814,20.205c-0.45,0.454-1.183,0.457-1.637,0.006l-1.361-1.35c-0.454-0.45-0.457-1.183-0.006-1.637
		l1.35-1.361c0.45-0.454,1.183-0.457,1.637-0.006l1.361,1.35c0.454,0.45,0.457,1.183,0.006,1.637L34.814,20.205z"/>
</g>
<g>
	<path fill="#FFFFFF" stroke="#FFFFFF" stroke-miterlimit="10" d="M62.091,11.731h18.448v4.56H67.515v5.285h11.953v4.214H67.515
		v6.046h13.3v4.559H62.091V11.731z"/>
	<path fill="#FFFFFF" stroke="#FFFFFF" stroke-miterlimit="10" d="M92.762,38.642c-1.071,2.867-2.798,4.041-6.148,4.041
		c-1.002,0-2.004-0.069-3.005-0.172V38.47c0.932,0.103,1.9,0.207,2.867,0.172c1.278-0.139,1.9-1.14,1.9-2.246
		c0-0.38-0.069-0.76-0.207-1.105l-6.287-16.754h5.251l4.041,12.228h0.069l3.904-12.228h5.078L92.762,38.642z"/>
	<path fill="#FFFFFF" stroke="#FFFFFF" stroke-miterlimit="10" d="M104.148,28.659c0.138,3.144,1.623,4.526,4.387,4.526
		c1.969,0,3.558-1.209,3.869-2.315h4.318c-1.382,4.249-4.318,6.011-8.36,6.011c-5.63,0-9.12-3.869-9.12-9.396
		c0-5.354,3.697-9.431,9.12-9.431c6.08,0,9.051,5.113,8.671,10.606H104.148z M112.127,25.549c-0.45-2.487-1.52-3.8-3.904-3.8
		c-3.179,0-3.973,2.418-4.076,3.8H112.127z"/>
	<path fill="#FFFFFF" stroke="#FFFFFF" stroke-miterlimit="10" d="M124.883,11.731h5.424v24.665h-5.424V11.731z"/>
	<path fill="#FFFFFF" stroke="#FFFFFF" stroke-miterlimit="10" d="M132.976,18.537h4.663v2.487h0.104
		c1.244-2.038,3.386-2.972,5.458-2.972c5.216,0,6.53,2.937,6.53,7.359v10.985h-4.906V26.31c0-2.937-0.829-4.388-3.143-4.388
		c-2.66,0-3.8,1.486-3.8,5.113v9.362h-4.906V18.537z"/>
	<path fill="#FFFFFF" stroke="#FFFFFF" stroke-miterlimit="10" d="M156.567,30.593c0,2.107,1.865,3.005,3.765,3.005
		c1.382,0,3.212-0.553,3.212-2.28c0-1.485-2.072-2.038-5.562-2.764c-2.867-0.656-5.665-1.589-5.665-4.767
		c0-4.56,3.938-5.735,7.773-5.735c3.869,0,7.496,1.313,7.876,5.7h-4.663c-0.138-1.9-1.589-2.418-3.351-2.418
		c-1.105,0-2.729,0.172-2.729,1.658c0,1.761,2.798,2.003,5.562,2.66c2.868,0.657,5.665,1.693,5.665,5.009
		c0,4.698-4.111,6.218-8.152,6.218c-4.145,0-8.221-1.554-8.395-6.287H156.567z"/>
	<path fill="#FFFFFF" stroke="#FFFFFF" stroke-miterlimit="10" d="M175.666,15.774h-4.905v-4.042h4.905V15.774z M170.761,18.537
		h4.905v17.859h-4.905V18.537z"/>
	<path fill="#FFFFFF" stroke="#FFFFFF" stroke-miterlimit="10" d="M196.012,35.257c0,2.936-1.071,7.91-9.258,7.91
		c-3.524,0-7.6-1.692-7.877-5.734h4.871c0.449,1.831,1.9,2.453,3.661,2.453c2.729,0,3.973-1.831,3.938-4.422v-2.349h-0.069
		c-1.071,1.9-3.178,2.764-5.354,2.764c-5.389,0-7.635-4.076-7.635-8.982c0-4.629,2.695-8.843,7.67-8.843
		c2.349,0,4.111,0.794,5.319,2.868h0.069v-2.383h4.663V35.257z M191.349,27.242c0-2.901-1.001-5.493-4.18-5.493
		c-2.764,0-3.972,2.418-3.972,5.078c0,2.556,0.932,5.354,3.972,5.354C189.967,32.182,191.349,29.799,191.349,27.242z"/>
	<path fill="#FFFFFF" stroke="#FFFFFF" stroke-miterlimit="10" d="M198.368,11.731h4.905v9.293h0.104
		c1.244-2.038,3.386-2.972,5.216-2.972c5.216,0,6.53,2.937,6.53,7.359v10.985h-4.906V26.31c0-2.937-0.829-4.388-3.143-4.388
		c-2.66,0-3.801,1.486-3.801,5.113v9.362h-4.905V11.731z"/>
	<path fill="#FFFFFF" stroke="#FFFFFF" stroke-miterlimit="10" d="M224.376,18.537h3.593v3.282h-3.593v8.843
		c0,1.658,0.414,2.072,2.072,2.072c0.553,0,1.071-0.035,1.52-0.138v3.834c-0.829,0.138-1.9,0.172-2.868,0.172
		c-3.04,0-5.63-0.656-5.63-4.248V21.819H216.5v-3.282h2.971v-5.355h4.905V18.537z"/>
</g>
</svg>
